<?xml version="1.0" encoding="utf-8"?>
<!-- Generator: Adobe Illustrator 26.4.1, SVG Export Plug-In . SVG Version: 6.00 Build 0)  -->
<svg version="1.1" id="Camada_1" xmlns="http://www.w3.org/2000/svg" xmlns:xlink="http://www.w3.org/1999/xlink" x="0px" y="0px"
	 viewBox="0 0 1024 1024" style="enable-background:new 0 0 1024 1024;" xml:space="preserve">
<style type="text/css">
	.st0{display:none;fill:#EFEEE1;}
	.st1{fill:#72A17D;}
	.st2{fill:#2F827A;}
	.st3{fill:#372476;}
</style>
<rect class="st0" width="1024" height="1024"/>
<path d="M317.6,959.5c-4.5-3.5-8.3-14.2-11.7-32.7c-3.8-20.5-4.1-67.6-0.6-91.4c2.9-19.7,8.7-43.9,15.5-64.2
	c19.4-58.2,58.1-115.5,98.8-146.1c6.2-4.7,8.7-5.8,13.1-5.8c7.4,0,11.6,2.4,14.4,8.2c3.7,7.6,1.5,12.3-10.7,22.5
	c-54.8,45.7-93.9,121.9-102.1,198.9c-1.1,9.9-1.9,21.9-1.8,26.6l0.1,8.5l1.8-4.9c3.3-9,16.2-34.4,26-51.1
	c31.4-53.8,72.5-98.9,131.5-144.4c61.9-47.8,79.5-63.5,96.7-86.7c13.8-18.5,22-37.7,34.2-79.5c6.6-22.5,15.8-41.9,26-54.7
	c9.7-12.2,16.1-17.9,30.2-27.1l11.3-7.4l-9.8-9c-18.5-17.1-32.8-24.4-49.7-25.6c-15.9-1.1-30.8,3.6-43.1,13.6
	c-7.6,6.2-17.8,22.1-20.6,32.2c-4.8,17-5.8,19.1-11,21.5c-4.5,0.4-15.3,0.7-20.5-5.9c-6.7-8.5,0.4-23.1,6.1-34.8
	c5.1-10.4,16.3-33.6,43.1-46.8c17.4-8.5,33.4-9,40.4-9.1c4.6-0.1,12.1-0.2,21.6,1.9c9.4,2.1,17.1,5.5,41.1,20.1
	c13.2,8,18.9,11.9,22.4,14c17.7,10.7,30.6,8.7,77.3,11.2c0,0,64.3,3.6,104.7,17.1c3.4,1.1,14.2,4.8,13.9,6c-0.2,0.8-4.6,0.2-5.7,0.1
	c-14.4-1.5-86.6-4.6-124.9-0.3c-21.1,2.4-74.1,8.3-102.8,46.3c-10.3,13.7-16.5,30.2-21.8,44.4c-9.6,25.6-10.9,42.1-25.7,69
	c-4.5,8.1-8.3,13.9-10.6,17.2c-10.7,15.9-26.1,34.1-80.6,77.3c-24.7,19.6-34.2,25.9-53.7,43.5c-3.1,2.8-12.6,11.5-24.6,23.4
	c-11.8,12.1-22.8,23-34.8,37.8c-14.7,18.1-24.3,33.5-27.5,38.9c-10.2,16.9-46,80.2-51.2,112.4c-0.4,2.5-1.5,10.3-7.4,14.1
	C329.4,962.4,322.1,960.9,317.6,959.5 M480.2,896.3c-9.4-0.5-17.8-1-18.6-1.1c-0.9-0.1-3.4-1.7-5.6-3.5c-3.5-2.9-4-4.3-4-9.6
	c0-5,0.7-6.9,3.3-9.3l3.3-3.1l33.8,0.3c24.8,0.2,38.3-0.2,50.9-1.8c89-11,168.3-53.5,228.4-122.6c42.5-48.8,71.4-111.2,80.6-173.9
	c2.5-16.9,3.1-62.1,1.2-89.2l-1.2-16.5l4.4-3.7c3.7-3.1,5.2-3.6,9.7-3c6.7,0.9,10.5,5.1,12.3,13.6c7.1,33.3,4.3,95.2-6.3,136.2
	c-17.7,68.6-49.3,123.8-99.8,174.3c-22.3,22.3-36.5,34.1-60.1,50c-54.5,36.7-119.2,58.6-185,62.9C506.4,897.8,506,897.8,480.2,896.3
	"/>
<g>
	<path class="st1" d="M405.9,580.9c6.1,0.5,15.2,0.2,20.3-0.7c10.3-1.8,24.7-6.4,25.4-8.1c0.8-1.8-9.8-13.5-19.5-21.6
		C411,532.8,400.5,527,337.9,499c-26.6-11.9-44.6-21.8-58.4-32.2c-2.2-1.7-2.1-0.6,0.9,6.3c5.6,12.8,18.3,36,24.4,44.4
		c12.3,17.1,29.9,34.3,44.1,43c1.9,1.1,13,6,24.7,10.8C392.8,579.1,395.9,580,405.9,580.9"/>
	<path class="st2" d="M474.9,556.1c0.8-6.7-2.5-24.3-6.7-35.5c-6.3-17-15.9-32.6-30.1-49.1c-22-25.4-42.4-42.1-95.8-78.6
		c-39.5-26.9-58.4-41.1-74.8-55.8c-13.8-12.5-30.3-30.6-37.5-41.1c-2.8-4-5.5-7.2-6-7c-1.6,0.6,0.3,23.6,3.4,40.8
		c10.3,57.4,32.6,94.6,74.7,124.8c8.5,6.1,16.6,10.2,53.1,26.7c64.8,29.4,83.5,41.1,109.4,68.4C474.3,559.9,474.4,559.9,474.9,556.1
		"/>
	<path class="st3" d="M492.2,511.4c0.1-1.3-0.3-8.2-0.7-15.3c-2.5-39.5-19.8-81.2-53.5-128.4c-17.1-24-31.6-41.8-82.4-101.1
		C288.3,188,261.9,154,235.1,111.7c-6.5-10.4-12.2-18.7-12.5-18.6s-2.2,5.2-4.1,11.3c-10.3,32.3-11.2,78.8-2.1,111.5
		c4.3,15.4,16,41.6,24.6,54.9c24,37.3,47.6,58.7,116.8,105.9c51.7,35.3,72.2,51.5,92.4,73c16.6,17.6,34.3,44.2,39.7,59.4
		C491.7,514.3,492.1,514.7,492.2,511.4"/>
</g>
<path d="M447.4,341.4c-6.4-8.6-38-46.7-70.2-84.6c-71.6-84.3-87.8-104.8-115.8-147.2c-7.4-11.2-16.7-26.4-20.6-33.8
	c-11.9-22.4-14.2-24.5-23.2-21.4c-4.9,1.7-5.6,2.5-10,11.4c-5.7,11.5-12.6,33.5-15.9,50.6c-7.2,37.6-5.3,80.6,5.1,114.5
	c2.8,9.2,3.5,14.9,3.2,26.3c-0.9,32.6,2.7,69.5,9.5,97.5c4.7,18.9,15.6,46.1,25.3,62.7c6.9,11.7,9.7,18.5,13.4,31.9
	c13.9,50.5,42.2,95.8,75.8,121.4c18,13.7,42.7,23.7,42.7,23.7c3.2,1.4,7.9,3.5,10.7,4.6c38.9,15.1,111.5-6.7,131.2-50.2
	c1-2.2,1.7-3.9,1.8-4.3c1-2.3,2.5-9.4,3.3-15.7C521.2,471.2,501,414.1,447.4,341.4z M451.6,572.1c-0.7,1.7-15.1,6.3-25.4,8.1
	c-5.1,0.9-14.2,1.2-20.3,0.7c-10-0.9-13.1-1.8-32.3-9.6c-11.7-4.8-22.8-9.7-24.7-10.8c-14.2-8.7-31.8-25.9-44.1-43
	c-6.1-8.4-18.8-31.6-24.4-44.4c-3-6.9-3.1-8-0.9-6.3c13.8,10.4,31.8,20.3,58.4,32.2c62.6,28,73.1,33.8,94.2,51.5
	C441.8,558.6,452.4,570.3,451.6,572.1z M474.9,556.1c-0.5,3.8-0.6,3.8-10.3-6.4c-25.9-27.3-44.6-39-109.4-68.4
	c-36.5-16.5-44.6-20.6-53.1-26.7c-42.1-30.2-64.4-67.4-74.7-124.8c-3.1-17.2-5-40.2-3.4-40.8c0.5-0.2,3.2,3,6,7
	c7.2,10.5,23.7,28.6,37.5,41.1c16.4,14.7,35.3,28.9,74.8,55.8c53.4,36.5,73.8,53.2,95.8,78.6c14.2,16.5,23.8,32.1,30.1,49.1
	C472.4,531.8,475.7,549.4,474.9,556.1z M492.2,511.4c-0.1,3.3-0.5,2.9-2.3-2.3c-5.4-15.2-23.1-41.8-39.7-59.4
	c-20.2-21.5-40.7-37.7-92.4-73C288.6,329.5,265,308.1,241,270.8c-8.6-13.3-20.3-39.5-24.6-54.9c-9.1-32.7-8.2-79.2,2.1-111.5
	c1.9-6.1,3.8-11.2,4.1-11.3c0.3-0.1,6,8.2,12.5,18.6c26.8,42.3,53.2,76.3,120.5,154.9c50.8,59.3,65.3,77.1,82.4,101.1
	c33.7,47.2,51,88.9,53.5,128.4C491.9,503.2,492.3,510.1,492.2,511.4z"/>
<path d="M180.9,367.9c0.7,2.7-0.5,8.3-3.8,17.5c-16.1,45.1-23.3,83.7-24.1,129.7c-1.3,71.8,18.2,142,55.6,200.3
	c17,26.5,26.7,38.4,50.3,61.7l20.7,20.4l-0.6,5.4c-1.2,10.5-11.3,15-20.6,9c-7.8-5.1-38.5-36-49.5-49.9
	c-26-32.8-43.8-64.1-57.7-101.1c-28.9-77.1-33.3-159.3-12.8-240.4c5.1-20.2,18-56.9,21-59.7C165.5,354.9,178.7,359.3,180.9,367.9z"
	/>
<path d="M358.2,167c5.3-3.5,48.4-17.1,66.6-20.9c88.9-18.8,175.6-6.4,256.9,36.6c25.5,13.5,40.3,23.2,62.3,40.9
	c40.4,32.4,78,79.5,99.8,124.9c12.8,26.7,14.1,34,6.8,40.1c-1.8,1.5-5.1,2.7-7.4,2.7c-8-0.1-10.5-2.7-17.6-18.3
	C775,262.6,674.2,186.9,552.7,168c-53-8.2-117.8-1.4-168.4,17.8c-16.5,6.3-21.7,7-27,4.1c-3.6-2-5.1-4.6-5.8-10.4
	C351,174.5,353.2,170.4,358.2,167"/>
</svg>
